/* XPM */
static char * exclamation_xpm[] = {
"15 20 47 1",
" 	c #0076D1",
".	c #0276D1",
"+	c #0E90EC",
"@	c #1F92ED",
"#	c #3595ED",
"$	c #1891EC",
"%	c #1093EF",
"&	c #8DB8F3",
"*	c #FEFEFF",
"=	c #67A7F1",
"-	c #8EB8F4",
";	c #FFFFFF",
">	c #66A6F1",
",	c #80B2F3",
"'	c #529FF0",
")	c #6FAAF2",
"!	c #3397EF",
"~	c #5AA2F1",
"{	c #FAFCFE",
"]	c #3F9AF0",
"^	c #FEFFFF",
"/	c #F3F7FD",
"(	c #1793EF",
"_	c #FCFDFF",
":	c #ECF2FD",
"<	c #F5F8FE",
"[	c #E4ECFC",
"}	c #EEF3FD",
"|	c #DCE7FB",
"1	c #E6EEFC",
"2	c #D3E1FA",
"3	c #6DA9F2",
"4	c #63A5F1",
"5	c #409AF0",
"6	c #72ABF2",
"7	c #3097EF",
"8	c #8CB7F3",
"9	c #FBFCFF",
"0	c #0A8BE7",
"a	c #0B8BE7",
"b	c #158CE7",
"c	c #238DE8",
"d	c #118CE7",
"e	c #006AC5",
"f	c #006AC4",
"g	c #0069C3",
"h	c #0069C4",
" ..............",
"++++++@##$+++++",
"%%%%%%&**=%%%%%",
"%%%%%%-;;=%%%%%",
"%%%%%%-;;=%%%%%",
"%%%%%%&;;>%%%%%",
"%%%%%%,;;'%%%%%",
"%%%%%%);*!%%%%%",
"%%%%%%~;{%%%%%%",
"%%%%%%]^/%%%%%%",
"%%%%%%(_:%%%%%%",
"%%%%%%%<[%%%%%%",
"%%%%%%%}|%%%%%%",
"%%%%%%%12%%%%%%",
"%%%%%%%34%%%%%%",
"%%%%%%5667%%%%%",
"%%%%%%-;;=%%%%%",
"%%%%%%899>%%%%%",
"0aaaaabccdaaaaa",
"eeeeefgggheeeee"};
